<?xml version="1.0" encoding="UTF-8"?>
<svg class="credits-logo heroku-logo" fill="#fff" width="11em" viewBox="0 0 25 30" preserveAspectRatio="xMidYMid meet" xmlns="http://www.w3.org/2000/svg">
<title>heroku-logo</title>
<path d="M3 0C1.13 0 0 1.11 0 2.903v24.194C0 28.883 1.13 30 3 30h21c1.863 0 3-1.11 3-2.903V2.903C26.994 1.11 25.863 0 24 0H3zm21.042 2c.508.006.958.448.958.929V27.07c0 .487-.45.929-.958.929H2.958C2.45 28 2 27.558 2 27.071V2.93c0-.488.45-.93.958-.93h21.084zM20 25h-2.781v-8.506c0-.774-.237-1.048-.468-1.208-1.396-.959-5.414-.042-7.834.916L7 17.012 7.006 5h2.816v7.917a20.99 20.99 0 0 1 1.882-.482c2.988-.643 5.184-.47 6.616.505.787.536 1.68 1.59 1.68 3.554V25zm-6-15h3.293A16.109 16.109 0 0 0 20 5h-3.287c-.49 1.188-1.385 3.188-2.713 5zM7 25v-7l3 3.5L7 25z"/>
</svg>
