<?xml version="1.0" encoding="UTF-8"?>
<svg viewBox="0 0 200 56" xmlns="http://www.w3.org/2000/svg">
<path d="m39.902 0.63573h-10.988c-2.2496 0-4.0785 1.819-4.0785 4.0533v16.021c0 2.2343 1.8289 4.0519 4.0785 4.0519h10.988c2.2496 0 4.0799-1.8176 4.0799-4.0519v-16.021c0-2.2343-1.8303-4.0533-4.0799-4.0533" fill="#E05548"/>
<path d="m65.925 47.323c-1.0776 1.1036-3.3258 2.8772-7.6661 2.8772-6.2508 0-11.145-4.1003-11.145-10.893 0-6.8238 4.9557-10.893 11.145-10.893 4.3719 0 6.7431 1.8048 7.2969 2.3865l-1.5398 4.1003c-0.40069-0.52053-2.6789-2.203-5.4809-2.203-3.6019 0-6.3725 2.3865-6.3725 6.5166 0 4.1301 2.8936 6.4882 6.3725 6.4882 2.6489 0 4.5565-1.0411 5.7271-2.2357l1.6629 3.8556" fill="#fff"/>
<path d="m74.978 50.169c-4.8026 0-8.436-2.9682-8.436-7.8322 0-4.8654 3.6334-7.8649 8.436-7.8649s8.406 2.9995 8.406 7.8649c0 4.864-3.6034 7.8322-8.406 7.8322zm0-11.841c-2.1866 0-3.4474 1.6839-3.4474 3.9168 0 2.2343 1.2608 3.9168 3.4474 3.9168 2.1552 0 3.4488-1.6825 3.4488-3.9168 0-2.2329-1.2937-3.9168-3.4488-3.9168z" fill="#fff"/>
<path d="m101.64 49.833h-4.6795l0.030052-1.9883-0.091587 0.029867c-1.1391 1.5303-2.9551 2.294-4.9872 2.294-4.4033 0-7.1753-3.4261-7.1753-7.8635 0-4.4359 2.7719-7.8336 7.1753-7.8336 2.7705 0 4.3103 1.3781 4.8026 2.112v-7.8649h4.9257v21.114zm-8.313-11.506c-2.1237 0-3.5705 1.5915-3.5705 3.9168 0 2.3268 1.4468 3.9168 3.5705 3.9168 2.1251 0 3.5418-1.59 3.5418-3.9168 0-2.3253-1.4167-3.9168-3.5418-3.9168z" fill="#fff"/>
<path d="m118.95 43.467h-10.807c0.21609 2.1746 1.879 3.1531 3.8796 3.1531 1.9706 0 3.695-0.85618 4.5579-1.4379l1.9391 2.5401c-0.49228 0.36693-2.4943 2.4462-7.2053 2.4462-4.6795 0-8.0969-2.8757-8.0969-7.8635 0-4.9877 3.695-7.8336 8.1899-7.8336s7.6046 2.9682 7.6046 7.3756c0 0.73387-0.061535 1.6199-0.061535 1.6199zm-4.5264-2.7833c-0.030052-1.3767-1.0461-3.0279-3.1097-3.0279-2.0321 0-3.0782 1.59-3.1397 3.0279h6.2494z" fill="#fff"/>
<path d="m132.19 32.636h-5.4795v17.198h-4.9886v-17.198h-5.4809v-3.9168h15.949v3.9168" fill="#fff"/>
<path d="m140.28 39.246h-0.21609c-0.27619-0.1536-0.92303-0.36693-1.7845-0.36693-1.1091 0-1.909 0.61156-2.2797 1.1008-0.36921 0.48924-0.7699 1.4692-0.7699 3.1516v6.7015h-4.9257v-15.084h4.9257l-0.030052 2.1404h0.061535c0.86149-1.6526 2.1251-2.4178 3.7565-2.4178 1.016 0 1.5384 0.27733 1.5384 0.27733l-0.27619 4.4971" fill="#fff"/>
<path d="m144.59 33.004c-1.6629 0-2.802-1.0098-2.802-2.5401 0-1.499 1.1391-2.5387 2.802-2.5387s2.802 1.0396 2.802 2.5387c0 1.5303-1.1391 2.5401-2.802 2.5401zm-2.4643 1.7451h4.9257v15.084h-4.9257v-15.084z" fill="#fff"/>
<path d="m163.84 49.833h-4.711l-0.093018-1.5915c-0.6454 0.64284-1.8775 1.9271-4.3404 1.9271-2.6789 0-5.511-1.4364-5.511-4.8028s3.1097-4.4985 5.9117-4.6208l3.818-0.15218v-0.33707c0-1.59-1.1391-2.4164-3.1097-2.4164-1.9405 0-3.8796 0.85618-4.6495 1.3454l-1.2937-3.1815c1.2937-0.64427 3.6635-1.5317 6.497-1.5317 2.832 0 4.4649 0.64284 5.6641 1.7451 1.1706 1.1008 1.8174 2.57 1.8174 5.11v8.5063zm-4.8956-6.6404l-2.4328 0.15218c-1.5083 0.062578-2.4013 0.70542-2.4013 1.8375 0 1.162 0.95451 1.866 2.3097 1.866 1.3237 0 2.2167-0.8576 2.5244-1.3767v-2.4789z" fill="#fff"/>
<path d="m182.74 46.774c0 3.2427-0.83144 5.1399-2.3083 6.518-1.4783 1.3753-3.5104 2.3851-6.9892 2.3851-3.5104 0-6.3124-1.4692-7.3584-2.2329l2.0321-3.2754c0.89297 0.67413 3.2027 1.7152 5.2333 1.7152 2.0321 0 3.0481-0.64427 3.5719-1.1932 0.52376-0.58311 0.92303-1.654 0.92303-2.9995v-0.49067h-0.060104c-0.92446 1.1947-2.4027 2.1419-4.7725 2.1419-3.725 0-7.1753-2.5685-7.1753-7.434s3.4503-7.4368 7.1753-7.4368c2.5544 0 4.0012 1.1634 4.8026 2.2044h0.061535l-0.061535-1.9271h4.9257v12.025zm-8.313-8.4764c-2.1852 0-3.5705 1.5915-3.5705 3.6409 0 2.0807 1.3853 3.6722 3.5705 3.6722 2.1866 0 3.5404-1.5915 3.5404-3.6722 0-2.0494-1.3538-3.6409-3.5404-3.6409z" fill="#fff"/>
<path d="m199.83 43.467h-10.806c0.21466 2.1746 1.8775 3.1531 3.8796 3.1531 1.9691 0 3.695-0.85618 4.5565-1.4379l1.9405 2.5401c-0.49371 0.36693-2.4957 2.4462-7.2053 2.4462-4.681 0-8.0983-2.8757-8.0983-7.8635 0-4.9877 3.695-7.8336 8.1899-7.8336s7.606 2.9682 7.606 7.3756c0 0.73387-0.062966 1.6199-0.062966 1.6199zm-4.525-2.7833c-0.031483-1.3767-1.0475-3.0279-3.1097-3.0279-2.0321 0-3.0796 1.59-3.1397 3.0279h6.2494z" fill="#fff"/>
<path d="m28.914 26.896c-3.4317 0-6.2251-2.7748-6.2251-6.1852v-11.553h-1.9248c-2.2482 0-4.0785 1.819-4.0785 4.0533v16.021c0 2.2357 1.8303 4.0533 4.0785 4.0533h10.989c2.2482 0 4.0771-1.8176 4.0771-4.0533v-2.3367h-6.9163" fill="#E9A02E"/>
<path d="m12.614 43.941c-3.4317 0-6.2251-2.7762-6.2251-6.1867v-11.551h-1.9248c-2.2496 0-4.0785 1.8176-4.0785 4.0533v16.02c0 2.2357 1.8289 4.0548 4.0785 4.0548h10.988c2.2496 0 4.0785-1.819 4.0785-4.0548v-2.3353h-6.9163" fill="#46B0BE"/>
<path d="m20.764 35.419c-3.4331 0-6.2251-2.7762-6.2251-6.1867v-11.551h-1.9248c-2.2496 0-4.0785 1.8176-4.0785 4.0533v16.02c0 2.2357 1.8289 4.0533 4.0785 4.0533h10.988c2.2496 0 4.0785-1.8176 4.0785-4.0533v-2.3353h-6.9163" fill="#5FB77A"/>
</svg>
