<svg id="Layer_1" xmlns="//www.w3.org/2000/svg" viewBox="0 0 236.7 73.1"><style>.st0{fill:#f15a4a}.st1{fill:#585a61}.st2{fill:#f4a61d}.st3{fill:#40b7cd}.st4{fill:#66c081}</style><path class="st0" d="M49.7 6.4H37.2c-2.6 0-4.6 2.1-4.6 4.6v18.3c0 2.6 2.1 4.6 4.6 4.6h12.5c2.6 0 4.6-2.1 4.6-4.6V11.1c0-2.6-2-4.7-4.6-4.7z"/><path class="st1" d="M79.3 59.9c-1.2 1.3-3.8 3.3-8.7 3.3-7.1 0-12.7-4.7-12.7-12.5s5.6-12.5 12.7-12.5c5 0 7.7 2.1 8.3 2.7l-1.8 4.7c-.5-.6-3-2.5-6.2-2.5-4.1 0-7.3 2.7-7.3 7.5S67 58 70.9 58c3 0 5.2-1.2 6.5-2.6l1.9 4.5zm10.3 3.3c-5.5 0-9.6-3.4-9.6-9s4.1-9 9.6-9 9.6 3.4 9.6 9-4.1 9-9.6 9zm0-13.6c-2.5 0-3.9 1.9-3.9 4.5s1.4 4.5 3.9 4.5 3.9-1.9 3.9-4.5c.1-2.6-1.4-4.5-3.9-4.5zM120 62.8h-5.3v-2.3h-.1c-1.3 1.8-3.4 2.6-5.7 2.6-5 0-8.2-3.9-8.2-9s3.2-9 8.2-9c3.2 0 4.9 1.6 5.5 2.4v-9h5.6v24.3zm-9.5-13.2c-2.4 0-4.1 1.8-4.1 4.5s1.6 4.5 4.1 4.5 4-1.8 4-4.5-1.6-4.5-4-4.5zm29.2 5.9h-12.3c.2 2.5 2.1 3.6 4.4 3.6 2.2 0 4.2-1 5.2-1.6l2.2 2.9c-.6.4-2.8 2.8-8.2 2.8-5.3 0-9.2-3.3-9.2-9s4.2-9 9.3-9c5.1 0 8.7 3.4 8.7 8.4-.1.9-.1 1.9-.1 1.9zm-5.2-3.2c0-1.6-1.2-3.5-3.5-3.5s-3.5 1.8-3.6 3.5h7.1z"/><path class="st1" d="M154.7 43.1h-6.2v19.7h-5.7V43.1h-6.2v-4.5h18.2v4.5z"/><path class="st1" d="M164 50.6h-.2c-.3-.2-1.1-.4-2-.4-1.3 0-2.2.7-2.6 1.3-.4.6-.9 1.7-.9 3.6v7.7h-5.6V45.5h5.6V48h.1c1-1.9 2.4-2.8 4.3-2.8 1.2 0 1.8.3 1.8.3l-.5 5.1zm4.9-7.1c-1.9 0-3.2-1.2-3.2-2.9s1.3-2.9 3.2-2.9c1.9 0 3.2 1.2 3.2 2.9s-1.3 2.9-3.2 2.9zm2.8 19.3h-5.6V45.5h5.6v17.3zm19.1 0h-5.4l-.1-1.8c-.7.7-2.1 2.2-4.9 2.2-3 0-6.3-1.6-6.3-5.5s3.5-5.2 6.7-5.3l4.3-.2v-.4c0-1.8-1.3-2.8-3.5-2.8s-4.4 1-5.3 1.5l-1.5-3.6c1.5-.7 4.2-1.8 7.4-1.8s5.1.7 6.4 2c1.3 1.3 2.1 2.9 2.1 5.9v9.8zm-5.6-7.6l-2.8.2c-1.7.1-2.7.8-2.7 2.1s1.1 2.1 2.6 2.1 2.5-1 2.9-1.6v-2.8zm27.1 4.1c0 3.7-.9 5.9-2.6 7.5-1.7 1.6-4 2.7-8 2.7s-7.2-1.7-8.4-2.6l2.3-3.8c1 .8 3.6 2 6 2s3.5-.7 4.1-1.4c.6-.7 1.1-1.9 1.1-3.4v-.6h-.1c-1.1 1.4-2.7 2.5-5.4 2.5-4.2 0-8.2-2.9-8.2-8.5s3.9-8.5 8.2-8.5c2.9 0 4.6 1.3 5.5 2.5h.1l-.1-2.2h5.6v13.8zm-9.5-9.7c-2.5 0-4.1 1.8-4.1 4.2 0 2.4 1.6 4.2 4.1 4.2s4-1.8 4-4.2c.1-2.4-1.5-4.2-4-4.2zm28.9 5.9h-12.3c.2 2.5 2.1 3.6 4.4 3.6 2.2 0 4.2-1 5.2-1.6l2.2 2.9c-.6.4-2.8 2.8-8.2 2.8-5.3 0-9.2-3.3-9.2-9s4.2-9 9.3-9c5.1 0 8.7 3.4 8.7 8.4 0 .9-.1 1.9-.1 1.9zm-5.1-3.2c0-1.6-1.2-3.5-3.5-3.5s-3.5 1.8-3.6 3.5h7.1z"/><path class="st2" d="M37.2 36.5c-3.9 0-7.1-3.2-7.1-7.1V16.2h-2.2c-2.6 0-4.6 2.1-4.6 4.6v18.3c0 2.6 2.1 4.6 4.6 4.6h12.5c2.6 0 4.6-2.1 4.6-4.6v-2.7h-7.8z"/><path class="st3" d="M18.6 56c-3.9 0-7.1-3.2-7.1-7.1V35.7H9.4c-2.6 0-4.6 2.1-4.6 4.6v18.3c0 2.6 2.1 4.6 4.6 4.6h12.5c2.6 0 4.6-2.1 4.6-4.6V56h-7.9z"/><path class="st4" d="M27.9 46.3c-3.9 0-7.1-3.2-7.1-7.1V25.9h-2.2C16 25.9 14 28 14 30.5v18.3c0 2.6 2.1 4.6 4.6 4.6h12.5c2.6 0 4.6-2.1 4.6-4.6v-2.7h-7.8z"/></svg>