<?xml version="1.0" encoding="utf-8"?>
<!-- Generator: Adobe Illustrator 19.1.0, SVG Export Plug-In . SVG Version: 6.00 Build 0)  -->
<svg version="1.1" id="Layer_1" xmlns="http://www.w3.org/2000/svg" xmlns:xlink="http://www.w3.org/1999/xlink" x="0px" y="0px"
	 viewBox="0 0 236.7 73.1" style="enable-background:new 0 0 236.7 73.1;" xml:space="preserve">
<style type="text/css">
	.st0{fill:#F15A4A;}
	.st1{fill:#585A61;}
	.st2{fill:#F4A61D;}
	.st3{fill:#40B7CD;}
	.st4{fill:#66C081;}
</style>
<path class="st0" d="M49.7,6.4H37.2c-2.6,0-4.6,2.1-4.6,4.6v18.3c0,2.6,2.1,4.6,4.6,4.6h12.5c2.6,0,4.6-2.1,4.6-4.6V11.1
	C54.3,8.5,52.3,6.4,49.7,6.4z"/>
<g>
	<path class="st1" d="M79.3,59.9c-1.2,1.3-3.8,3.3-8.7,3.3c-7.1,0-12.7-4.7-12.7-12.5c0-7.8,5.6-12.5,12.7-12.5c5,0,7.7,2.1,8.3,2.7
		l-1.8,4.7c-0.5-0.6-3-2.5-6.2-2.5c-4.1,0-7.3,2.7-7.3,7.5S67,58,70.9,58c3,0,5.2-1.2,6.5-2.6L79.3,59.9z"/>
	<path class="st1" d="M89.6,63.2c-5.5,0-9.6-3.4-9.6-9s4.1-9,9.6-9c5.5,0,9.6,3.4,9.6,9S95.1,63.2,89.6,63.2z M89.6,49.6
		c-2.5,0-3.9,1.9-3.9,4.5c0,2.6,1.4,4.5,3.9,4.5c2.5,0,3.9-1.9,3.9-4.5C93.6,51.5,92.1,49.6,89.6,49.6z"/>
	<path class="st1" d="M120,62.8h-5.3l0-2.3l-0.1,0c-1.3,1.8-3.4,2.6-5.7,2.6c-5,0-8.2-3.9-8.2-9c0-5.1,3.2-9,8.2-9
		c3.2,0,4.9,1.6,5.5,2.4v-9h5.6V62.8z M110.5,49.6c-2.4,0-4.1,1.8-4.1,4.5c0,2.7,1.6,4.5,4.1,4.5s4-1.8,4-4.5
		C114.5,51.4,112.9,49.6,110.5,49.6z"/>
	<path class="st1" d="M139.7,55.5h-12.3c0.2,2.5,2.1,3.6,4.4,3.6c2.2,0,4.2-1,5.2-1.6l2.2,2.9c-0.6,0.4-2.8,2.8-8.2,2.8
		c-5.3,0-9.2-3.3-9.2-9s4.2-9,9.3-9c5.1,0,8.7,3.4,8.7,8.4C139.7,54.5,139.7,55.5,139.7,55.5z M134.5,52.3c0-1.6-1.2-3.5-3.5-3.5
		c-2.3,0-3.5,1.8-3.6,3.5H134.5z"/>
	<path class="st1" d="M154.7,43.1h-6.2v19.7h-5.7V43.1h-6.2v-4.5h18.2V43.1z"/>
	<path class="st1" d="M164,50.6h-0.2c-0.3-0.2-1.1-0.4-2-0.4c-1.3,0-2.2,0.7-2.6,1.3c-0.4,0.6-0.9,1.7-0.9,3.6v7.7h-5.6V45.5h5.6
		l0,2.5h0.1c1-1.9,2.4-2.8,4.3-2.8c1.2,0,1.8,0.3,1.8,0.3L164,50.6z"/>
	<path class="st1" d="M168.9,43.5c-1.9,0-3.2-1.2-3.2-2.9c0-1.7,1.3-2.9,3.2-2.9c1.9,0,3.2,1.2,3.2,2.9
		C172.1,42.3,170.8,43.5,168.9,43.5z M171.7,62.8h-5.6V45.5h5.6V62.8z"/>
	<path class="st1" d="M190.8,62.8h-5.4l-0.1-1.8c-0.7,0.7-2.1,2.2-4.9,2.2c-3,0-6.3-1.6-6.3-5.5c0-3.9,3.5-5.2,6.7-5.3l4.3-0.2v-0.4
		c0-1.8-1.3-2.8-3.5-2.8c-2.2,0-4.4,1-5.3,1.5l-1.5-3.6c1.5-0.7,4.2-1.8,7.4-1.8c3.2,0,5.1,0.7,6.4,2c1.3,1.3,2.1,2.9,2.1,5.9V62.8z
		 M185.2,55.2l-2.8,0.2c-1.7,0.1-2.7,0.8-2.7,2.1c0,1.3,1.1,2.1,2.6,2.1c1.5,0,2.5-1,2.9-1.6V55.2z"/>
	<path class="st1" d="M212.3,59.3c0,3.7-0.9,5.9-2.6,7.5c-1.7,1.6-4,2.7-8,2.7c-4,0-7.2-1.7-8.4-2.6l2.3-3.8c1,0.8,3.6,2,6,2
		s3.5-0.7,4.1-1.4c0.6-0.7,1.1-1.9,1.1-3.4v-0.6h-0.1c-1.1,1.4-2.7,2.5-5.4,2.5c-4.2,0-8.2-2.9-8.2-8.5s3.9-8.5,8.2-8.5
		c2.9,0,4.6,1.3,5.5,2.5h0.1l-0.1-2.2h5.6V59.3z M202.8,49.6c-2.5,0-4.1,1.8-4.1,4.2c0,2.4,1.6,4.2,4.1,4.2s4-1.8,4-4.2
		C206.9,51.4,205.3,49.6,202.8,49.6z"/>
	<path class="st1" d="M231.7,55.5h-12.3c0.2,2.5,2.1,3.6,4.4,3.6c2.2,0,4.2-1,5.2-1.6l2.2,2.9c-0.6,0.4-2.8,2.8-8.2,2.8
		c-5.3,0-9.2-3.3-9.2-9s4.2-9,9.3-9c5.1,0,8.7,3.4,8.7,8.4C231.8,54.5,231.7,55.5,231.7,55.5z M226.6,52.3c0-1.6-1.2-3.5-3.5-3.5
		c-2.3,0-3.5,1.8-3.6,3.5H226.6z"/>
</g>
<path class="st2" d="M37.2,36.5c-3.9,0-7.1-3.2-7.1-7.1V16.2h-2.2c-2.6,0-4.6,2.1-4.6,4.6v18.3c0,2.6,2.1,4.6,4.6,4.6h12.5
	c2.6,0,4.6-2.1,4.6-4.6v-2.7H37.2z"/>
<path class="st3" d="M18.6,56c-3.9,0-7.1-3.2-7.1-7.1V35.7H9.4c-2.6,0-4.6,2.1-4.6,4.6v18.3c0,2.6,2.1,4.6,4.6,4.6h12.5
	c2.6,0,4.6-2.1,4.6-4.6V56H18.6z"/>
<path class="st4" d="M27.9,46.3c-3.9,0-7.1-3.2-7.1-7.1V25.9h-2.2c-2.6,0-4.6,2.1-4.6,4.6v18.3c0,2.6,2.1,4.6,4.6,4.6h12.5
	c2.6,0,4.6-2.1,4.6-4.6v-2.7H27.9z"/>
</svg>
